<svg width="32" height="32" viewBox="0 0 32 32" xmlns="http://www.w3.org/2000/svg">
  <rect width="32" height="32" fill="#0A0A0A"></rect>
  
  <svg x="3" y="3" width="26" height="26" viewBox="-0.66 21.82 142 191.18" preserveAspectRatio="xMidYMid meet">
    
    <path fill="#FFFFFF" d="M-0.66 213L-0.66 191.22L11 191.22Q17.60 191.22 20.79 188.36Q23.98 185.50 23.98 178.24L23.98 178.24L23.98 62.52L52.14 62.52L52.14 179.12Q52.14 197.38 43.89 205.19Q35.64 213 16.06 213L16.06 213L-0.66 213Z"></path>
    
    <path fill="#FFFFFF" d="M23.32 46.90L23.32 21.82L52.58 21.82L52.58 46.90L23.32 46.90Z"></path>
    
    <path fill="#FFFFFF" d="M81 213L81 182.20L113.34 182.20L113.34 213L81 213Z"></path>
  </svg>
</svg>